<?xml version="1.0" encoding="utf-8"?>
<!-- Generator: Adobe Illustrator 16.0.0, SVG Export Plug-In . SVG Version: 6.00 Build 0)  -->
<!DOCTYPE svg PUBLIC "-//W3C//DTD SVG 1.1//EN" "http://www.w3.org/Graphics/SVG/1.1/DTD/svg11.dtd">
<svg version="1.1" id="Layer_1" xmlns="http://www.w3.org/2000/svg" xmlns:xlink="http://www.w3.org/1999/xlink" x="0px" y="0px"
	 width="250px" height="100px" viewBox="0 75 250 100" enable-background="new 0 75 250 100" xml:space="preserve">
<title>bdcode-logo-black</title>
<path fill="#FFFFFF" d="M40.6,132.6c0,3.2-0.5,6.4-1.5,9.5c-0.9,2.7-2.5,5.1-4.4,7.2c-2,2-4.4,3.6-7.1,4.6c-3.1,1.1-6.3,1.7-9.6,1.6
	c-1.5,0-3.1-0.1-4.7-0.2c-1.6-0.1-3.2-0.3-4.8-0.5c-1.6-0.2-3.1-0.5-4.5-0.8s-2.7-0.6-3.8-0.9V92l12.4-2v21.7
	c1.4-0.6,2.8-1.1,4.3-1.4c1.6-0.3,3.2-0.5,4.8-0.5c2.8-0.1,5.6,0.5,8.2,1.6c2.3,1,4.4,2.6,6,4.6c1.7,2.1,2.9,4.6,3.6,7.2
	C40.1,126.3,40.6,129.4,40.6,132.6z M27.9,132.2c0-8-2.9-11.9-8.8-11.9c-1.3,0-2.5,0.2-3.8,0.5c-1.1,0.3-2.1,0.7-3,1.2v22.5
	c0.6,0.1,1.4,0.2,2.3,0.3s2,0.1,3.1,0.1c3,0.2,5.8-1.1,7.6-3.5C27.2,138.7,28.1,135.5,27.9,132.2z"/>
<path fill="#FFFFFF" d="M88.6,153c-1.1,0.3-2.4,0.6-3.8,0.9c-1.4,0.3-2.9,0.6-4.5,0.8c-1.6,0.2-3.2,0.4-4.8,0.5
	c-1.6,0.1-3.2,0.2-4.7,0.2c-3.3,0.1-6.5-0.5-9.6-1.6c-2.7-1-5.1-2.5-7.1-4.5c-2-2-3.5-4.5-4.4-7.1c-1.1-3-1.6-6.2-1.5-9.4
	c0-3.3,0.4-6.5,1.3-9.6c0.8-2.7,2.1-5.1,3.8-7.3c1.6-2,3.7-3.5,6.1-4.6c2.6-1.1,5.4-1.6,8.3-1.6c1.5,0,3.1,0.1,4.6,0.5
	c1.4,0.3,2.8,0.8,4.2,1.4V92l12.3-2L88.6,153z M60.6,132.2c-0.2,3.3,0.7,6.5,2.6,9.2c1.8,2.4,4.7,3.7,7.6,3.5c1.1,0,2.1,0,3.1-0.1
	c1-0.1,1.7-0.2,2.3-0.3V122c-0.9-0.6-2-1-3-1.2c-1.2-0.3-2.5-0.5-3.8-0.5C63.6,120.3,60.6,124.3,60.6,132.2z"/>
<path fill="#FFFFFF" d="M104,153.8c-2.1-1.3-3.6-3.2-4.3-5.6c-1.1-3.5-1.5-7.1-1.4-10.7c-0.1-3.6,0.3-7.3,1.4-10.7
	c0.7-2.3,2.2-4.3,4.2-5.6c2.2-1.2,4.7-1.8,7.3-1.7c1.4,0,2.9,0.2,4.3,0.4c1.4,0.2,2.7,0.5,4,1v2.8h-7c-3.4-0.3-6.5,2-7,5.4
	c-0.7,2.7-1,5.6-0.9,8.4c-0.1,2.9,0.2,5.7,0.9,8.5c0.4,1.7,1.4,3.1,2.8,4.2c1.5,0.9,3.2,1.3,4.9,1.2h6.9v2.8c-1.3,0.4-2.6,0.7-4,1
	c-1.4,0.3-2.8,0.4-4.3,0.4C109,155.6,106.4,155,104,153.8z"/>
<path fill="#FFFFFF" d="M126.6,151.4c-2.1-2.8-3.1-7.4-3.1-13.9c0-6.5,1-11.1,3.1-13.9c2.1-2.7,5.3-4.1,9.6-4.1s7.6,1.4,9.6,4.1
	c2.1,2.8,3.1,7.4,3.1,13.9c0,6.5-1,11.1-3.1,13.9c-2.1,2.8-5.3,4.1-9.6,4.1C131.9,155.4,128.7,154.1,126.6,151.4z M141,148.4
	c1.2-2.2,1.8-5.8,1.8-10.9c0-5.1-0.6-8.8-1.8-10.9s-2.8-3.2-4.7-3.2s-3.5,1.1-4.7,3.2c-1.2,2.2-1.8,5.8-1.8,10.9
	c0,5.1,0.6,8.8,1.8,10.9c1.2,2.2,2.8,3.2,4.7,3.2C138.2,151.7,139.8,150.6,141,148.4z"/>
<path fill="#FFFFFF" d="M158.1,151.5c-1.9-2.7-2.8-7.3-2.8-14c0-6.6,0.9-11.3,2.8-14c1.9-2.7,4.7-4,8.6-4c2.4,0,4.8,0.6,6.9,1.7
	v-14.9h6.2v48.4h-5.2l-0.3-2.1h-0.3c-0.9,0.9-2,1.6-3.2,2.1c-1.3,0.5-2.6,0.7-4,0.7C162.8,155.4,160,154.1,158.1,151.5z
	 M171.3,150.9c0.8-0.2,1.5-0.5,2.2-1v-24.9c-0.7-0.4-1.4-0.8-2.2-1c-0.9-0.3-1.7-0.4-2.6-0.4c-2.2-0.1-4.4,1.1-5.5,3
	c-1.2,2-1.8,5.6-1.8,10.8c0,5.2,0.6,8.8,1.8,10.8c1.1,2,3.2,3.1,5.5,3C169.6,151.3,170.5,151.2,171.3,150.9L171.3,150.9z"/>
<path fill="#FFFFFF" d="M193.8,153.8c-2.2-1.2-3.8-3.2-4.6-5.5c-1.1-3.5-1.6-7.2-1.5-10.8c-0.1-3.6,0.3-7.2,1.4-10.7
	c0.6-2.3,2-4.2,4-5.6c4.2-2.2,9.3-2.2,13.5,0c1.9,1.4,3.3,3.3,4,5.6c1,3.5,1.5,7.1,1.4,10.7v2.1h-18c-0.1,2.4,0.2,4.8,1,7
	c0.5,1.6,1.6,2.9,3.1,3.6c1.8,0.8,3.7,1.1,5.6,1h6.9v2.8c-1.3,0.4-2.7,0.7-4,1c-1.4,0.3-2.9,0.4-4.3,0.4
	C199.3,155.6,196.4,155,193.8,153.8z M205.7,135.4c0-4.3-0.5-7.4-1.6-9.3c-1-2.3-3.7-3.4-6.1-2.4c-1.1,0.5-1.9,1.3-2.4,2.4
	c-1.1,1.9-1.6,5-1.6,9.3H205.7z"/>
<path fill="#FFFFFF" d="M218.8,155.1H250l-1.2,4.9h-31.2L218.8,155.1z"/>
</svg>
